<svg width="65" height="49" viewBox="0 0 65 49" fill="none" xmlns="http://www.w3.org/2000/svg">
<path d="M62.1721 26.9637C60.2872 24.5722 57.8785 23.0222 54.9439 22.3126C55.8699 20.8938 56.3317 19.3147 56.3317 17.5755C56.3317 15.1495 55.4852 13.0786 53.7931 11.3621C52.1007 9.64609 50.0582 8.78774 47.6657 8.78774C45.5215 8.78774 43.6485 9.49724 42.0464 10.9162C40.7154 7.62063 38.5875 4.97754 35.6651 2.98684C32.7427 0.995532 29.5207 0 25.9995 0C21.2151 0 17.1299 1.71681 13.7444 5.1496C10.3587 8.58154 8.66643 12.7242 8.66643 17.5758C8.66643 17.8733 8.68908 18.3654 8.73414 19.0517C6.07105 20.3104 3.94974 22.1983 2.36949 24.7154C0.78983 27.2332 0 29.9789 0 32.9545C0 37.1884 1.48421 40.8093 4.45179 43.8186C7.41949 46.8289 10.9912 48.3331 15.1665 48.3331H52.0002C55.5882 48.3331 58.6518 47.0453 61.1912 44.4712C63.7303 41.8971 65 38.7907 65 35.1512C64.9996 32.0846 64.0571 29.3558 62.1721 26.9637ZM43.0107 26.0374C42.7957 26.2543 42.5424 26.3629 42.2494 26.3629H34.6662V38.4466C34.6662 38.7437 34.5591 39.0012 34.3447 39.2185C34.1298 39.4364 33.8765 39.5444 33.5835 39.5444H27.0825C26.7891 39.5444 26.5352 39.4366 26.3209 39.2185C26.107 39.0012 25.9993 38.7437 25.9993 38.4466V26.3629H18.4159C18.1003 26.3629 17.8405 26.2601 17.6377 26.0547C17.4346 25.8486 17.3332 25.5853 17.3332 25.2652C17.3332 24.9904 17.4459 24.7155 17.6714 24.441L29.5542 12.3925C29.7573 12.1864 30.017 12.0835 30.3329 12.0835C30.649 12.0835 30.9087 12.1864 31.1115 12.3925L43.0282 24.4753C43.2315 24.6812 43.332 24.9443 43.332 25.2654C43.3319 25.5622 43.2248 25.8206 43.0107 26.0374Z" fill="white"/>
</svg>
